<svg width="32" height="32" viewBox="0 0 32 32" fill="none" xmlns="http://www.w3.org/2000/svg">
<rect width="32" height="32" rx="5" fill="#0A192F"/>
<path d="M11.5756 19.628C10.7116 19.628 9.9169 19.4893 9.19156 19.212C8.46623 18.924 7.8369 18.524 7.30356 18.012C6.77023 17.4893 6.35423 16.8813 6.05556 16.188C5.7569 15.4947 5.60756 14.732 5.60756 13.9C5.60756 13.068 5.7569 12.3053 6.05556 11.612C6.35423 10.9187 6.77023 10.316 7.30356 9.804C7.84756 9.28133 8.48223 8.88133 9.20756 8.604C9.9329 8.316 10.7329 8.172 11.6076 8.172C12.4929 8.172 13.3036 8.316 14.0396 8.604C14.7756 8.892 15.3996 9.324 15.9116 9.9L14.9196 10.892C14.4609 10.444 13.9596 10.1187 13.4156 9.916C12.8822 9.70267 12.3009 9.596 11.6716 9.596C11.0316 9.596 10.4342 9.70267 9.87956 9.916C9.33556 10.1293 8.8609 10.428 8.45556 10.812C8.0609 11.196 7.75156 11.6547 7.52756 12.188C7.31423 12.7107 7.20756 13.2813 7.20756 13.9C7.20756 14.508 7.31423 15.0787 7.52756 15.612C7.75156 16.1347 8.0609 16.5933 8.45556 16.988C8.8609 17.372 9.33556 17.6707 9.87956 17.884C10.4236 18.0973 11.0156 18.204 11.6556 18.204C12.2529 18.204 12.8236 18.1133 13.3676 17.932C13.9222 17.74 14.4342 17.4253 14.9036 16.988L15.8156 18.204C15.2609 18.6733 14.6102 19.0307 13.8636 19.276C13.1276 19.5107 12.3649 19.628 11.5756 19.628ZM14.2796 17.996V13.836H15.8156V18.204L14.2796 17.996ZM22.1669 19.628C21.3136 19.628 20.4976 19.5 19.7189 19.244C18.9403 18.9773 18.3269 18.636 17.8789 18.22L18.4709 16.972C18.8976 17.3453 19.4416 17.6547 20.1029 17.9C20.7643 18.1453 21.4523 18.268 22.1669 18.268C22.8176 18.268 23.3456 18.1933 23.7509 18.044C24.1563 17.8947 24.4549 17.692 24.6469 17.436C24.8389 17.1693 24.9349 16.8707 24.9349 16.54C24.9349 16.156 24.8069 15.8467 24.5509 15.612C24.3056 15.3773 23.9803 15.1907 23.5749 15.052C23.1803 14.9027 22.7429 14.7747 22.2629 14.668C21.7829 14.5613 21.2976 14.4387 20.8069 14.3C20.3269 14.1507 19.8843 13.964 19.4789 13.74C19.0843 13.516 18.7643 13.2173 18.5189 12.844C18.2736 12.46 18.1509 11.9693 18.1509 11.372C18.1509 10.796 18.3003 10.268 18.5989 9.788C18.9083 9.29733 19.3776 8.908 20.0069 8.62C20.6469 8.32133 21.4576 8.172 22.4389 8.172C23.0896 8.172 23.7349 8.25733 24.3749 8.428C25.0149 8.59867 25.5696 8.844 26.0389 9.164L25.5109 10.444C25.0309 10.124 24.5243 9.89467 23.9909 9.756C23.4576 9.60667 22.9403 9.532 22.4389 9.532C21.8096 9.532 21.2923 9.612 20.8869 9.772C20.4816 9.932 20.1829 10.1453 19.9909 10.412C19.8096 10.6787 19.7189 10.9773 19.7189 11.308C19.7189 11.7027 19.8416 12.0173 20.0869 12.252C20.3429 12.4867 20.6683 12.6733 21.0629 12.812C21.4683 12.9507 21.9109 13.0787 22.3909 13.196C22.8709 13.3027 23.3509 13.4253 23.8309 13.564C24.3216 13.7027 24.7643 13.884 25.1589 14.108C25.5643 14.332 25.8896 14.6307 26.1349 15.004C26.3803 15.3773 26.5029 15.8573 26.5029 16.444C26.5029 17.0093 26.3483 17.5373 26.0389 18.028C25.7296 18.508 25.2496 18.8973 24.5989 19.196C23.9589 19.484 23.1483 19.628 22.1669 19.628Z" fill="white"/>
<line x1="8.5" y1="23" x2="23.5" y2="23" stroke="#1E5359" stroke-linecap="round"/>
</svg>
