<svg width="16" height="16" viewBox="0 0 16 16" fill="none" xmlns="http://www.w3.org/2000/svg">
<rect width="16" height="16" rx="5" fill="#0A192F"/>
<path d="M5.78778 10.064C5.35578 10.064 4.95845 9.99467 4.59578 9.856C4.23311 9.712 3.91845 9.512 3.65178 9.256C3.38511 8.99467 3.17711 8.69067 3.02778 8.344C2.87845 7.99733 2.80378 7.616 2.80378 7.2C2.80378 6.784 2.87845 6.40267 3.02778 6.056C3.17711 5.70933 3.38511 5.408 3.65178 5.152C3.92378 4.89067 4.24111 4.69067 4.60378 4.552C4.96645 4.408 5.36645 4.336 5.80378 4.336C6.24645 4.336 6.65178 4.408 7.01978 4.552C7.38778 4.696 7.69978 4.912 7.95578 5.2L7.45978 5.696C7.23045 5.472 6.97978 5.30933 6.70778 5.208C6.44111 5.10133 6.15045 5.048 5.83578 5.048C5.51578 5.048 5.21711 5.10133 4.93978 5.208C4.66778 5.31467 4.43045 5.464 4.22778 5.656C4.03045 5.848 3.87578 6.07733 3.76378 6.344C3.65711 6.60533 3.60378 6.89067 3.60378 7.2C3.60378 7.504 3.65711 7.78933 3.76378 8.056C3.87578 8.31733 4.03045 8.54667 4.22778 8.744C4.43045 8.936 4.66778 9.08533 4.93978 9.192C5.21178 9.29867 5.50778 9.352 5.82778 9.352C6.12645 9.352 6.41178 9.30667 6.68378 9.216C6.96111 9.12 7.21711 8.96267 7.45178 8.744L7.90778 9.352C7.63045 9.58667 7.30511 9.76533 6.93178 9.888C6.56378 10.0053 6.18245 10.064 5.78778 10.064ZM7.13978 9.248V7.168H7.90778V9.352L7.13978 9.248ZM11.0835 10.064C10.6568 10.064 10.2488 10 9.85947 9.872C9.47014 9.73867 9.16347 9.568 8.93947 9.36L9.23547 8.736C9.4488 8.92267 9.7208 9.07733 10.0515 9.2C10.3821 9.32267 10.7261 9.384 11.0835 9.384C11.4088 9.384 11.6728 9.34667 11.8755 9.272C12.0781 9.19733 12.2275 9.096 12.3235 8.968C12.4195 8.83467 12.4675 8.68533 12.4675 8.52C12.4675 8.328 12.4035 8.17333 12.2755 8.056C12.1528 7.93867 11.9901 7.84533 11.7875 7.776C11.5901 7.70133 11.3715 7.63733 11.1315 7.584C10.8915 7.53067 10.6488 7.46933 10.4035 7.4C10.1635 7.32533 9.94214 7.232 9.73947 7.12C9.54214 7.008 9.38214 6.85867 9.25947 6.672C9.1368 6.48 9.07547 6.23467 9.07547 5.936C9.07547 5.648 9.15014 5.384 9.29947 5.144C9.45414 4.89867 9.6888 4.704 10.0035 4.56C10.3235 4.41067 10.7288 4.336 11.2195 4.336C11.5448 4.336 11.8675 4.37867 12.1875 4.464C12.5075 4.54933 12.7848 4.672 13.0195 4.832L12.7555 5.472C12.5155 5.312 12.2621 5.19733 11.9955 5.128C11.7288 5.05333 11.4701 5.016 11.2195 5.016C10.9048 5.016 10.6461 5.056 10.4435 5.136C10.2408 5.216 10.0915 5.32267 9.99547 5.456C9.9048 5.58933 9.85947 5.73867 9.85947 5.904C9.85947 6.10133 9.9208 6.25867 10.0435 6.376C10.1715 6.49333 10.3341 6.58667 10.5315 6.656C10.7341 6.72533 10.9555 6.78933 11.1955 6.848C11.4355 6.90133 11.6755 6.96267 11.9155 7.032C12.1608 7.10133 12.3821 7.192 12.5795 7.304C12.7821 7.416 12.9448 7.56533 13.0675 7.752C13.1901 7.93867 13.2515 8.17867 13.2515 8.472C13.2515 8.75467 13.1741 9.01867 13.0195 9.264C12.8648 9.504 12.6248 9.69867 12.2995 9.848C11.9795 9.992 11.5741 10.064 11.0835 10.064Z" fill="white"/>
<line x1="4" y1="11.5" x2="12" y2="11.5" stroke="#1E5359" stroke-linecap="round"/>
</svg>
