<svg width="64" height="64" viewBox="0 0 64 64" fill="none" xmlns="http://www.w3.org/2000/svg">
<rect width="64" height="64" rx="5" fill="#0A192F"/>
<path d="M23.1511 40.256C21.4231 40.256 19.8338 39.9787 18.3831 39.424C16.9325 38.848 15.6738 38.048 14.6071 37.024C13.5405 35.9787 12.7085 34.7627 12.1111 33.376C11.5138 31.9893 11.2151 30.464 11.2151 28.8C11.2151 27.136 11.5138 25.6107 12.1111 24.224C12.7085 22.8373 13.5405 21.632 14.6071 20.608C15.6951 19.5627 16.9645 18.7627 18.4151 18.208C19.8658 17.632 21.4658 17.344 23.2151 17.344C24.9858 17.344 26.6071 17.632 28.0791 18.208C29.5511 18.784 30.7991 19.648 31.8231 20.8L29.8391 22.784C28.9218 21.888 27.9191 21.2373 26.8311 20.832C25.7645 20.4053 24.6018 20.192 23.3431 20.192C22.0631 20.192 20.8685 20.4053 19.7591 20.832C18.6711 21.2587 17.7218 21.856 16.9111 22.624C16.1218 23.392 15.5031 24.3093 15.0551 25.376C14.6285 26.4213 14.4151 27.5627 14.4151 28.8C14.4151 30.016 14.6285 31.1573 15.0551 32.224C15.5031 33.2693 16.1218 34.1867 16.9111 34.976C17.7218 35.744 18.6711 36.3413 19.7591 36.768C20.8471 37.1947 22.0311 37.408 23.3111 37.408C24.5058 37.408 25.6471 37.2267 26.7351 36.864C27.8445 36.48 28.8685 35.8507 29.8071 34.976L31.6311 37.408C30.5218 38.3467 29.2205 39.0613 27.7271 39.552C26.2551 40.0213 24.7298 40.256 23.1511 40.256ZM28.5591 36.992V28.672H31.6311V37.408L28.5591 36.992ZM44.3339 40.256C42.6272 40.256 40.9952 40 39.4379 39.488C37.8805 38.9547 36.6539 38.272 35.7579 37.44L36.9419 34.944C37.7952 35.6907 38.8832 36.3093 40.2059 36.8C41.5285 37.2907 42.9045 37.536 44.3339 37.536C45.6352 37.536 46.6912 37.3867 47.5019 37.088C48.3125 36.7893 48.9099 36.384 49.2939 35.872C49.6779 35.3387 49.8699 34.7413 49.8699 34.08C49.8699 33.312 49.6139 32.6933 49.1019 32.224C48.6112 31.7547 47.9605 31.3813 47.1499 31.104C46.3605 30.8053 45.4859 30.5493 44.5259 30.336C43.5659 30.1227 42.5952 29.8773 41.6139 29.6C40.6539 29.3013 39.7685 28.928 38.9579 28.48C38.1685 28.032 37.5285 27.4347 37.0379 26.688C36.5472 25.92 36.3019 24.9387 36.3019 23.744C36.3019 22.592 36.6005 21.536 37.1979 20.576C37.8165 19.5947 38.7552 18.816 40.0139 18.24C41.2939 17.6427 42.9152 17.344 44.8779 17.344C46.1792 17.344 47.4699 17.5147 48.7499 17.856C50.0299 18.1973 51.1392 18.688 52.0779 19.328L51.0219 21.888C50.0619 21.248 49.0485 20.7893 47.9819 20.512C46.9152 20.2133 45.8805 20.064 44.8779 20.064C43.6192 20.064 42.5845 20.224 41.7739 20.544C40.9632 20.864 40.3659 21.2907 39.9819 21.824C39.6192 22.3573 39.4379 22.9547 39.4379 23.616C39.4379 24.4053 39.6832 25.0347 40.1739 25.504C40.6859 25.9733 41.3365 26.3467 42.1259 26.624C42.9365 26.9013 43.8219 27.1573 44.7819 27.392C45.7419 27.6053 46.7019 27.8507 47.6619 28.128C48.6432 28.4053 49.5285 28.768 50.3179 29.216C51.1285 29.664 51.7792 30.2613 52.2699 31.008C52.7605 31.7547 53.0059 32.7147 53.0059 33.888C53.0059 35.0187 52.6965 36.0747 52.0779 37.056C51.4592 38.016 50.4992 38.7947 49.1979 39.392C47.9179 39.968 46.2965 40.256 44.3339 40.256Z" fill="white"/>
<line x1="14" y1="45" x2="50" y2="45" stroke="#1E5359" stroke-width="2" stroke-linecap="round"/>
</svg>
